<svg viewBox="0 0 500 500" xmlns="http://www.w3.org/2000/svg" xmlns:bx="https://boxy-svg.com">
  <defs>
    <radialGradient gradientUnits="userSpaceOnUse" cx="170.047" cy="338.747" r="82.808" id="preloader-gradient" gradientTransform="matrix(2.962111, 3.870331, -4.928003, 3.771581, 1269.332009, -1569.0347)">
      <stop offset="0" style="stop-color: rgba(189, 104, 142, 1)"></stop>
      <stop offset="1" style="stop-color: rgba(133, 58, 92, 1)"></stop>
    </radialGradient>
  </defs>
  <path style="stroke-width: 4.22008px; stroke-opacity: 0.66; fill: url(#preloader-gradient);" d="M 171.58016666666666 89.9085 C 171.105 86.10633333333334 171.105 79.45266666666667 172.37233333333333 73.90783333333333 C 173.63966666666667 68.363 176.17433333333335 63.927 179.97633333333332 59.808 C 183.77833333333334 55.689 188.84766666666667 51.887 210.07666666666668 49.986 C 231.30566666666667 48.085 268.69433333333336 48.085 289.9235 49.986 C 311.1526666666667 51.887 316.2223333333333 55.689 320.0245 59.80799999999999 C 323.82666666666665 63.927 326.36133333333333 68.363 327.6286666666667 73.90783333333333 C 328.896 79.45266666666667 328.896 86.10633333333334 328.42083333333335 89.9085 C 327.9456666666667 93.71066666666667 326.99533333333335 94.66133333333333 323.1931666666667 95.13666666666666 C 319.391 95.61200000000001 312.737 95.61200000000001 308.9346666666667 95.13666666666666 C 305.13233333333335 94.66133333333333 304.1816666666667 93.71066666666667 303.86483333333337 90.70050000000002 C 303.548 87.69033333333334 303.865 82.62066666666668 303.54833333333335 79.45233333333333 C 303.2316666666667 76.284 302.28133333333335 75.017 284.85450000000003 74.3835 C 267.42766666666665 73.75 233.52433333333337 73.75 215.939 74.3835 C 198.35366666666667 75.017 197.08633333333333 76.284 196.61116666666666 79.45233333333333 C 196.136 82.62066666666668 196.453 87.69033333333334 196.136 90.70049999999999 C 195.819 93.71066666666667 194.86800000000002 94.66133333333333 191.06566666666666 95.13666666666666 C 187.26333333333332 95.61200000000001 180.60966666666664 95.61200000000001 176.80766666666668 95.13666666666666 C 173.00566666666666 94.66133333333333 172.05533333333332 93.71066666666667 171.58016666666666 89.9085" bx:d="M 171.105 92.76 U 171.105 72.799 U 178.709 59.491 U 193.917 48.085 U 306.083 48.085 U 321.292 59.491 U 328.896 72.799 U 328.896 92.76 U 326.045 95.612 U 306.083 95.612 U 303.231 92.76 U 304.182 77.551 U 301.331 73.75 U 199.621 73.75 U 195.819 77.551 U 196.77 92.76 U 193.917 95.612 U 173.956 95.612 Z 1@1d3da6ef"></path>
  <path style="stroke-width: 4.22008px; stroke-opacity: 0.66; fill: url(#preloader-gradient);" d="M 27.413 143.45633333333333 C 29.78933333333333 124.44533333333334 32.95766666666666 120.00966666666666 36.75966666666667 116.20766666666667 C 40.56166666666667 112.40566666666666 44.99733333333333 109.23733333333332 114.07083333333333 107.65316666666666 C 183.14433333333332 106.069 316.85566666666665 106.069 385.9293333333333 107.65316666666666 C 455.003 109.23733333333332 459.439 112.40566666666666 463.2411666666667 116.20766666666667 C 467.04333333333335 120.00966666666666 470.21166666666664 124.44533333333334 472.58799999999997 143.45633333333333 C 474.96433333333334 162.46733333333333 476.54866666666663 196.05366666666666 472.58816666666667 217.12433333333334 C 468.6276666666667 238.19500000000002 459.1223333333333 246.75 449.617 254.19600000000003 C 440.1116666666667 261.642 430.60633333333334 267.979 403.04016666666666 270.51383333333337 C 375.474 273.04866666666663 329.84700000000004 271.78133333333335 307.03350000000006 271.1476666666667 C 284.22 270.514 284.22 270.514 284.22 265.286 C 284.22 260.058 284.22 249.602 282.7943333333333 242.31449999999998 C 281.3686666666667 235.02699999999996 278.51733333333334 230.908 268.5366666666667 228.84849999999997 C 258.556 226.789 241.446 226.789 231.465 228.84849999999997 C 221.484 230.908 218.63199999999998 235.02699999999996 217.20600000000002 242.31450000000004 C 215.78 249.602 215.78 260.058 215.78 265.286 C 215.78 270.514 215.78 270.514 192.96683333333337 271.1476666666667 C 170.15366666666668 271.78133333333335 124.52733333333333 273.04866666666663 96.96133333333334 270.5138333333333 C 69.39533333333333 267.979 59.88966666666666 261.642 50.384166666666665 254.196 C 40.87866666666667 246.75 31.373333333333335 238.19500000000002 27.412833333333335 217.12433333333334 C 23.452333333333332 196.05366666666666 25.036666666666665 162.46733333333333 27.413 143.45633333333333" bx:d="M 26.621 128.881 U 36.126 115.574 U 49.433 106.069 U 450.567 106.069 U 463.875 115.574 U 473.38 128.881 U 478.133 229.64 U 449.617 255.305 U 421.101 274.316 U 284.22 270.514 U 284.22 270.514 U 284.22 239.146 U 275.666 226.789 U 224.336 226.789 U 215.78 239.146 U 215.78 270.514 U 215.78 270.514 U 78.901 274.316 U 50.384 255.305 U 21.868 229.64 Z 1@9c275619"></path>
  <path style="stroke-width: 4.22008px; stroke-opacity: 0.66; fill: url(#preloader-gradient);" d="M 232.25683333333336 301.2488333333333 C 231.93999999999997 290.159 231.93999999999997 268.93 232.25683333333336 257.8401666666667 C 232.57366666666667 246.75033333333332 233.20733333333337 245.79966666666667 238.91050000000004 245.32433333333333 C 244.61366666666666 244.84900000000002 255.38633333333334 244.84900000000002 261.08966666666663 245.32433333333333 C 266.79299999999995 245.79966666666667 267.42699999999996 246.75033333333332 267.74399999999997 257.8401666666667 C 268.061 268.93 268.061 290.159 267.74399999999997 301.2488333333333 C 267.42699999999996 312.33866666666665 266.79299999999995 313.28933333333333 261.0896666666667 313.76466666666664 C 255.38633333333334 314.24 244.61366666666666 314.24 238.91050000000004 313.76466666666664 C 233.20733333333337 313.28933333333333 232.57366666666667 312.33866666666665 232.25683333333336 301.2488333333333" bx:d="M 231.94 311.388 U 231.94 247.701 U 233.841 244.849 U 266.159 244.849 U 268.061 247.701 U 268.061 311.388 U 266.159 314.24 U 233.841 314.24 Z 1@4d93b634"></path>
  <path style="stroke-width: 4px; stroke-opacity: 0.66; fill: url(#preloader-gradient);" d="M 119.19633333333333 450.3748333333333 C 51.89833333333333 448.9536666666666 44.314666666666675 446.11133333333333 38.15383333333333 441.5306666666666 C 31.993 436.95 27.255 430.63100000000003 25.6755 399.19399999999996 C 24.096 367.757 25.675 311.202 26.4645 282.9245 C 27.254 254.64700000000002 27.254 254.64700000000002 31.677333333333337 258.9121666666667 C 36.10066666666666 263.1773333333333 44.947333333333326 271.7076666666667 54.58449999999999 277.7108333333333 C 64.22166666666666 283.714 74.64933333333333 287.19 101.66366666666666 288.6118333333333 C 128.678 290.03366666666665 172.279 289.4013333333333 194.07949999999997 289.0851666666667 C 215.88 288.769 215.88 288.769 215.88000000000002 293.98216666666667 C 215.88 299.19533333333334 215.88 309.62166666666667 217.3016666666667 316.8885 C 218.72333333333333 324.1553333333333 221.5666666666667 328.2626666666667 231.519 330.3163333333334 C 241.47133333333332 332.37 258.53266666666667 332.37 268.48516666666666 330.3163333333333 C 278.43766666666664 328.2626666666667 281.28133333333335 324.1553333333333 282.7031666666667 316.88849999999996 C 284.125 309.62166666666667 284.125 299.19533333333334 284.125 293.98216666666667 C 284.125 288.769 284.125 288.769 305.926 289.0851666666667 C 327.72700000000003 289.4013333333333 371.329 290.03366666666665 398.3425 288.6118333333333 C 425.356 287.19 435.781 283.714 445.41650000000004 277.7108333333333 C 455.05199999999996 271.7076666666667 463.89799999999997 263.1773333333333 468.3210000000001 258.9121666666667 C 472.74399999999997 254.64700000000002 472.74399999999997 254.64700000000002 473.5338333333334 282.9245 C 474.32366666666667 311.202 475.90333333333336 367.757 474.3241666666666 399.19399999999996 C 472.74500000000006 430.63100000000003 468.007 436.95 461.8463333333334 441.5306666666666 C 455.6856666666667 446.11133333333333 448.1023333333333 448.9536666666666 380.8045 450.3748333333333 C 313.50666666666666 451.796 186.49433333333332 451.796 119.19633333333333 450.3748333333333" bx:d="M 59.482 451.796 U 36.731 443.269 U 22.517 424.312 U 27.254 254.647 U 27.254 254.647 U 53.794 280.238 U 85.077 290.666 U 215.88 288.769 U 215.88 288.769 U 215.88 320.048 U 224.41 332.37 U 275.594 332.37 U 284.125 320.048 U 284.125 288.769 U 284.125 288.769 U 414.931 290.666 U 446.206 280.238 U 472.744 254.647 U 472.744 254.647 U 477.483 424.312 U 463.269 443.269 U 440.519 451.796 Z 1@c5c3c775"></path>
</svg>