<svg viewBox="0 0 500 500" xmlns="http://www.w3.org/2000/svg" xmlns:bx="https://boxy-svg.com">
  <g transform="matrix(0.947849, 0, 0, 0.947849, 13.03788, 12.031185)">
    <path style="fill: #fff;" d="M 167.5 83 C 167 79 167 72 168.33333333333334 66.16666666666667 C 169.66666666666666 60.333333333333336 172.33333333333334 55.666666666666664 176.33333333333334 51.333333333333336 C 180.33333333333334 47 185.66666666666666 43 208 41 C 230.33333333333334 39 269.6666666666667 39 292 41 C 314.3333333333333 43 319.6666666666667 47 323.6666666666667 51.333333333333336 C 327.6666666666667 55.666666666666664 330.3333333333333 60.333333333333336 331.6666666666667 66.16666666666667 C 333 72 333 79 332.5 83 C 332 87 331 88 327 88.5 C 323 89 316 89 312 88.5 C 308 88 307 87 306.6666666666667 83.83333333333333 C 306.3333333333333 80.66666666666667 306.6666666666667 75.33333333333333 306.3333333333333 72 C 306 68.66666666666667 305 67.33333333333333 286.6666666666667 66.66666666666667 C 268.3333333333333 66 232.66666666666666 66 214.16666666666666 66.66666666666667 C 195.66666666666666 67.33333333333333 194.33333333333334 68.66666666666667 193.83333333333334 72 C 193.33333333333334 75.33333333333333 193.66666666666666 80.66666666666667 193.33333333333334 83.83333333333333 C 193 87 192 88 188 88.5 C 184 89 177 89 173 88.5 C 169 88 168 87 167.5 83" bx:d="M 167 86 U 167 65 U 175 51 U 191 39 U 309 39 U 325 51 U 333 65 U 333 86 U 330 89 U 309 89 U 306 86 U 307 70 U 304 66 U 197 66 U 193 70 U 194 86 U 191 89 U 170 89 Z 1@9ad17c18"></path>
    <path style="fill: #fff;" d="M 15.833333333333334 139.33333333333334 C 18.333333333333332 119.33333333333333 21.666666666666668 114.66666666666667 25.666666666666668 110.66666666666667 C 29.666666666666668 106.66666666666667 34.333333333333336 103.33333333333333 107 101.66666666666667 C 179.66666666666666 100 320.3333333333333 100 393 101.66666666666667 C 465.6666666666667 103.33333333333333 470.3333333333333 106.66666666666667 474.3333333333333 110.66666666666667 C 478.3333333333333 114.66666666666667 481.6666666666667 119.33333333333333 484.1666666666667 139.33333333333334 C 486.6666666666667 159.33333333333334 488.3333333333333 194.66666666666666 484.1666666666667 216.83333333333334 C 480 239 470 248 460 255.83333333333334 C 450 263.6666666666667 440 270.3333333333333 411 273 C 382 275.6666666666667 334 274.3333333333333 310 273.6666666666667 C 286 273 286 273 286 267.5 C 286 262 286 251 284.5 243.33333333333334 C 283 235.66666666666666 280 231.33333333333334 269.5 229.16666666666666 C 259 227 241 227 230.5 229.16666666666666 C 220 231.33333333333334 217 235.66666666666666 215.5 243.33333333333334 C 214 251 214 262 214 267.5 C 214 273 214 273 190 273.6666666666667 C 166 274.3333333333333 118 275.6666666666667 89 273 C 60 270.3333333333333 50 263.6666666666667 40 255.83333333333334 C 30 248 20 239 15.833333333333334 216.83333333333334 C 11.666666666666666 194.66666666666666 13.333333333333334 159.33333333333334 15.833333333333334 139.33333333333334" bx:d="M 15 124 U 25 110 U 39 100 U 461 100 U 475 110 U 485 124 U 490 230 U 460 257 U 430 277 U 286 273 U 286 273 U 286 240 U 277 227 U 223 227 U 214 240 U 214 273 U 214 273 U 70 277 U 40 257 U 10 230 Z 1@ad9da59b"></path>
    <path style="fill: #fff;" d="M 231.33333333333334 305.3333333333333 C 231 293.6666666666667 231 271.3333333333333 231.33333333333334 259.6666666666667 C 231.66666666666666 248 232.33333333333334 247 238.33333333333334 246.5 C 244.33333333333334 246 255.66666666666666 246 261.6666666666667 246.5 C 267.6666666666667 247 268.3333333333333 248 268.6666666666667 259.6666666666667 C 269 271.3333333333333 269 293.6666666666667 268.6666666666667 305.3333333333333 C 268.3333333333333 317 267.6666666666667 318 261.6666666666667 318.5 C 255.66666666666666 319 244.33333333333334 319 238.33333333333334 318.5 C 232.33333333333334 318 231.66666666666666 317 231.33333333333334 305.3333333333333" bx:d="M 231 316 U 231 249 U 233 246 U 267 246 U 269 249 U 269 316 U 267 319 U 233 319 Z 1@24ab4800"></path>
  </g>
  <path style="fill: #fff;" d="M 119.19716666666666 449.46233333333333 C 51.9 448.0406666666667 44.317 445.19733333333335 38.156 440.6161666666667 C 31.995 436.035 27.256 429.71599999999995 25.676333333333332 398.279 C 24.096666666666664 366.84200000000004 25.676333333333332 310.287 26.466166666666666 282.0095 C 27.256 253.732 27.256 253.732 31.679166666666664 257.99733333333336 C 36.102333333333334 262.2626666666667 44.94866666666667 270.79333333333335 54.58516666666667 276.79633333333334 C 64.22166666666668 282.7993333333333 74.64833333333333 286.2746666666667 101.66216666666666 287.6965 C 128.67600000000002 289.11833333333334 172.27700000000002 288.4866666666667 194.0775 288.17083333333335 C 215.87800000000001 287.855 215.87800000000001 287.855 215.87799999999996 293.0681666666667 C 215.87800000000001 298.28133333333335 215.87800000000001 308.7076666666667 217.29966666666664 315.97433333333333 C 218.72133333333332 323.241 221.56466666666665 327.348 231.51699999999997 329.4015 C 241.4693333333333 331.455 258.53066666666666 331.455 268.48316666666665 329.4015 C 278.4356666666667 327.348 281.27933333333334 323.241 282.70116666666667 315.97433333333333 C 284.123 308.7076666666667 284.123 298.28133333333335 284.123 293.0681666666667 C 284.123 287.855 284.123 287.855 305.9235 288.17083333333335 C 327.724 288.4866666666667 371.325 289.11833333333334 398.3386666666667 287.6965 C 425.3523333333333 286.2746666666667 435.77866666666665 282.7993333333333 445.415 276.79633333333334 C 455.05133333333333 270.79333333333335 463.8976666666667 262.2626666666667 468.3208333333334 257.9973333333333 C 472.74399999999997 253.732 472.74399999999997 253.732 473.53400000000005 282.0095 C 474.324 310.287 475.904 366.84200000000004 474.3243333333333 398.279 C 472.74466666666666 429.71599999999995 468.00533333333334 436.035 461.8441666666667 440.6161666666667 C 455.683 445.19733333333335 448.09999999999997 448.0406666666667 380.80283333333335 449.46233333333333 C 313.5056666666666 450.884 186.49433333333332 450.884 119.19716666666666 449.46233333333333" bx:d="M 59.483 450.884 U 36.734 442.354 U 22.517 423.397 U 27.256 253.732 U 27.256 253.732 U 53.795 279.324 U 85.075 289.75 U 215.878 287.855 U 215.878 287.855 U 215.878 319.134 U 224.408 331.455 U 275.592 331.455 U 284.123 319.134 U 284.123 287.855 U 284.123 287.855 U 414.926 289.75 U 446.205 279.324 U 472.744 253.732 U 472.744 253.732 U 477.484 423.397 U 463.266 442.354 U 440.517 450.884 Z 1@da1f2604"></path>
</svg>